# xmcd
#
# Track frame offsets: 
#        150
#        12266
#        23712
#        36362
#        48623
#        59547
#        71353
#        84257
#        97507
#        108221
#        117928
#        129163
#        139288
#        150639
#        162939
#        172465
#        183554
#        194758
#        207217
#        218041
#        230057
#        242098
#        254217
#        266419
#        276969
#
# Disc length: 3854 seconds
#
# Revision: 4
# Processed by: cddbd v1.5.2PL0 Copyright (c) Steve Scherf et al.
# Submitted via: ExactAudioCopy v1.0b3
#
DISCID=6f0f0c19
DTITLE=Various Artist - Hillbilly Boogie [Disc 1]
DYEAR=2002
DGENRE=Hillbilly
TTITLE0=Turner, Zeb - Travelling Boogie
TTITLE1=Tyler, Johnny and The Riders Of The Rio Grande - Freight Train B
TTITLE1=oogie
TTITLE2=O'Neal, Jimmie And The Colorado Hillbillies - Streamliner Boog
TTITLE2=ie
TTITLE3=Glosson, Lonnie - Pan American Boogie
TTITLE4=Choates, Harry - Louisiana Boogie
TTITLE5=Durham, Jeff and His Rhythm Playboys - Tennessee Boogie
TTITLE6=Turner, Zeb - Tennessee Boogie
TTITLE7=Williams, Curley and His Georgia Peach Pickers - Georgia Boogie
TTITLE8=O'Quinn, Gene - Texas Boogie
TTITLE9=Pleasant, Red and The Southern Serenaders - Mississippi Boogie
TTITLE10=Guthrie, Jack and His Oklahomans - Oakie Boogie
TTITLE11=Gunter, Hardrock - Dixieland Boogie
TTITLE12=Pete Burke Trio, The - Kentucky Waltz Boogie
TTITLE13=Delmore Brothers, The - Mobile Boogie
TTITLE14=Rauch, Rocky and His Western Serenaders - Colorado Boogie
TTITLE15=Davidson, Jean - Fort Worth Boogie
TTITLE16=Boyd, Jim - Waxachachie Boogie Woogie Dishwasher Boy
TTITLE17=Raney, Wayne and The Delmore Brothers - Del Rio Boogie
TTITLE18=Milo Twins, The - Downtown Boogie
TTITLE19=Billy Hughes' Buccaroos - Out Of Town Boogie
TTITLE20=Briggs, Billy - North Pole Boogie
TTITLE21=Cooley, Spade - Three Way Boogie
TTITLE22=Ford, Tennessee Ernie - Smokey Mountain Boogie
TTITLE23=Rash, Curley and His South Texas Playboys - Humble Road Boogie
TTITLE24=Delmore Brothers, The - Peach Tree Street Boogie
EXTD=YEAR: 2003
EXTT0=
EXTT1=
EXTT2=
EXTT3=
EXTT4=
EXTT5=
EXTT6=
EXTT7=
EXTT8=
EXTT9=
EXTT10=
EXTT11=
EXTT12=
EXTT13=
EXTT14=
EXTT15=
EXTT16=
EXTT17=
EXTT18=
EXTT19=
EXTT20=
EXTT21=
EXTT22=
EXTT23=
EXTT24=
PLAYORDER=
